<svg width="82" height="33" viewBox="0 0 82 33" fill="none" xmlns="http://www.w3.org/2000/svg">
<path d="M81.793 0H0V32.7097H81.793V0Z" fill="#EC1D24"/>
<path d="M79.1991 25.1666V30.1219H70.0219V2.56592H74.964V25.1666H79.1991ZM39.9859 16.0785C39.6035 16.2627 39.2036 16.3542 38.8138 16.3555V7.49296H38.8389C39.2287 7.48986 42.1382 7.60829 42.1382 11.876C42.1382 14.1066 41.1479 15.5137 39.9859 16.0785ZM25.5024 21.5195L26.8707 9.7368L28.2903 21.5195H25.5024ZM69.1601 7.59575V2.5703H55.1669L52.8635 19.3546L50.5883 2.56968H45.5416L46.1063 7.05109C45.5246 5.90284 43.4588 2.56968 38.9109 2.56968C38.8815 2.56838 33.8592 2.56968 33.8592 2.56968L33.8397 27.0338L30.1619 2.5703L23.5526 2.5672L19.7468 27.9138L19.7481 2.57034H13.4233L11.1431 16.8086L8.92187 2.56967H2.59399V30.1263H7.57682V16.8437L9.84447 30.1263H12.4932L14.7276 16.8437V30.1263H24.3342L24.9158 25.888H28.783L29.364 30.1263L38.795 30.1313H38.8013V30.1263H38.8138V21.1822L39.9702 21.013L42.3626 30.1325H47.2414L47.2401 30.1262H47.2539L44.1132 19.4411C45.7039 18.2627 47.5015 15.2768 47.0233 12.4193V12.418C47.0283 12.4544 49.9873 30.1437 49.9873 30.1437L55.7886 30.1268L59.7542 5.15004V30.1268H69.1602V25.1703H64.6951V18.8525H69.1602V13.8195H64.6951V7.59507L69.1601 7.59575Z" fill="#FEFEFE"/>
</svg>
